<svg xmlns="http://www.w3.org/2000/svg" viewBox="0 0 420 420" role="img" aria-labelledby="title desc">
  <title id="title">Animated portrait of a Black man board member</title>
  <desc id="desc">Cartoon-style board member portrait with dark skin, short hair, glasses, and a plum jacket.</desc>
  <defs>
    <linearGradient id="bg" x1="0" y1="0" x2="1" y2="1">
      <stop offset="0" stop-color="#dfe8dc"/>
      <stop offset="1" stop-color="#9fb7a3"/>
    </linearGradient>
  </defs>
  <rect width="420" height="420" fill="url(#bg)"/>
  <path d="M86 420c20-90 73-136 124-136s104 46 124 136z" fill="#4a273c"/>
  <path d="M150 420c8-58 27-92 60-92s52 34 60 92z" fill="#f7efe4"/>
  <circle cx="210" cy="188" r="92" fill="#5b3224"/>
  <path d="M126 176c4-72 42-112 87-112 55 0 88 42 83 112-29-21-92-26-170 0z" fill="#171512"/>
  <rect x="156" y="191" width="47" height="29" rx="12" fill="none" stroke="#171512" stroke-width="7"/>
  <rect x="217" y="191" width="47" height="29" rx="12" fill="none" stroke="#171512" stroke-width="7"/>
  <path d="M203 205h14" stroke="#171512" stroke-width="7" stroke-linecap="round"/>
  <circle cx="178" cy="204" r="5" fill="#171512"/>
  <circle cx="240" cy="204" r="5" fill="#171512"/>
  <path d="M204 214l-13 43h32z" fill="#442318" opacity=".55"/>
  <path d="M182 266c18 15 41 15 58 0" fill="none" stroke="#21100b" stroke-width="8" stroke-linecap="round"/>
  <path d="M166 321l44 44 44-44" fill="none" stroke="#c99a45" stroke-width="10" stroke-linecap="round" stroke-linejoin="round"/>
  <circle cx="132" cy="218" r="17" fill="#70412e"/>
  <circle cx="288" cy="218" r="17" fill="#70412e"/>
</svg>
