<svg xmlns="http://www.w3.org/2000/svg" viewBox="0 0 420 420" role="img" aria-labelledby="title desc">
  <title id="title">Animated portrait of a Black woman board member</title>
  <desc id="desc">Cartoon-style board member portrait with dark skin, natural hair, and a red blazer.</desc>
  <defs>
    <linearGradient id="bg" x1="0" y1="0" x2="1" y2="1">
      <stop offset="0" stop-color="#f7efe4"/>
      <stop offset="1" stop-color="#d9a24f"/>
    </linearGradient>
  </defs>
  <rect width="420" height="420" fill="url(#bg)"/>
  <circle cx="210" cy="180" r="132" fill="#16110f"/>
  <circle cx="116" cy="152" r="50" fill="#1d1715"/>
  <circle cx="304" cy="152" r="50" fill="#1d1715"/>
  <path d="M88 420c14-88 76-138 122-138s108 50 122 138z" fill="#b84f5f"/>
  <path d="M144 420c8-70 34-106 66-106s58 36 66 106z" fill="#fffaf2"/>
  <circle cx="210" cy="186" r="91" fill="#7a442c"/>
  <path d="M126 177c14-82 69-112 108-101 41 11 64 49 60 101-37-28-101-28-168 0z" fill="#14100f"/>
  <circle cx="176" cy="195" r="8" fill="#171512"/>
  <circle cx="244" cy="195" r="8" fill="#171512"/>
  <path d="M204 204l-12 43h32z" fill="#63351f" opacity=".65"/>
  <path d="M178 260c22 20 47 20 65 0" fill="none" stroke="#2c1712" stroke-width="8" stroke-linecap="round"/>
  <circle cx="143" cy="218" r="18" fill="#8d5438"/>
  <circle cx="277" cy="218" r="18" fill="#8d5438"/>
  <path d="M132 165c32-38 83-56 146-18" fill="none" stroke="#fffaf2" stroke-width="12" stroke-linecap="round" opacity=".18"/>
</svg>
